<svg xmlns="http://www.w3.org/2000/svg" viewBox="0 0 120 40" width="198" height="124">
  <path d="M104.52,33.18a3,3,0,1,1-3.06,3A2.91,2.91,0,0,1,104.52,33.18Zm6.71,0a3,3,0,1,1-3.06,3A2.91,2.91,0,0,1,111.23,33.18ZM86,33.18a1.8,1.8,0,0,1,2,1.71h-.85c0-.51-.42-.89-1.14-.89s-1.15.39-1.15.92.63.7,1.32.82c.91.16,1.93.34,1.93,1.63,0,1.1-.84,1.78-2.12,1.78s-2.09-.67-2.12-1.76h.89c0,.57.45.93,1.23.93s1.25-.36,1.25-.93-.62-.7-1.31-.82l-.24,0c-.83-.16-1.69-.41-1.69-1.59A1.79,1.79,0,0,1,86,33.18Zm-17.64,0a3,3,0,1,1-3,3A2.92,2.92,0,0,1,68.33,33.18Zm23.42,0a2.93,2.93,0,0,1,2.94,2.12h-1a2.16,2.16,0,1,0,0,1.72h1a3.05,3.05,0,1,1-2.94-3.84Zm-39.34,0a3,3,0,1,1-3.06,3A2.91,2.91,0,0,1,52.41,33.18Zm-6.6,0a2.92,2.92,0,0,1,2.94,2.12h-.94a2.16,2.16,0,1,0,0,1.72h.94a3,3,0,1,1-2.94-3.84Zm29.23,0a2.92,2.92,0,0,1,2.88,1.92h-1A2,2,0,0,0,75,34a2.16,2.16,0,0,0,0,4.32,2,2,0,0,0,2.09-1.48H74.69V36h3.4v.43a3.05,3.05,0,1,1-3-3.27Zm41,.11v4.92h3.22V39h-4.12V33.29Zm-32.92,0v.83H79.82V35.7h2.82v.82H79.82v1.69h3.33V39H78.92V33.29Zm-43.43,0v.83H36.39V35.7h2.82v.82H36.39v1.69h3.33V39H35.49V33.29Zm20.57,0v2.42h3.2V33.29h.9V39h-.9V36.53h-3.2V39h-.9V33.29Zm36.18,0v2.42h3.21V33.29h.89V39h-.89V36.53H96.47V39h-.89V33.29Zm-64.92,0a2.88,2.88,0,1,1,0,5.75H29.5V33.29ZM52.41,34a2.16,2.16,0,1,0,2.15,2.16A2.08,2.08,0,0,0,52.41,34Zm15.92,0a2.16,2.16,0,1,0,2.15,2.16A2.08,2.08,0,0,0,68.33,34Zm36.19,0a2.16,2.16,0,1,0,2.15,2.16A2.07,2.07,0,0,0,104.52,34Zm6.71,0a2.16,2.16,0,1,0,2.15,2.16A2.07,2.07,0,0,0,111.23,34Zm-79.68.12H30.4v4.09h1.15a2,2,0,1,0,0-4.09ZM58.6,36.25v.8H56v-.8Zm-10-35.14V18.45c0,6-4.08,10-9.93,10s-10.09-4.08-10.09-10a9.17,9.17,0,0,1,9.3-9.63A7.08,7.08,0,0,1,44.12,12V1.11ZM68.1,8.78c4.57,0,7.37,2.57,7.48,5.86H71.12C71,13.5,70,12.71,68.18,12.71c-2,0-3,.94-3,2,0,1.43,1.7,1.66,3.7,1.93,2.5.34,7.07.83,7.07,5.47,0,3.78-3.06,6.27-7.82,6.27s-7.75-2.53-7.86-6h4.53c0,1.24,1.14,2.07,3.33,2.07s3.28-.94,3.28-2.07c0-1.44-1.66-1.63-3.66-1.89-2.87-.38-7.1-.87-7.1-5.44C60.7,11.27,63.61,8.78,68.1,8.78Zm-54.65-6c7.7,0,13.14,5.44,13.14,12.84S21.15,28.42,13.45,28.42.3,23,.3,15.58,5.74,2.74,13.45,2.74Zm74.44,6c5.9,0,10,4.16,10,9.82v1.59H82.57a5.1,5.1,0,0,0,5.32,4.15,5.22,5.22,0,0,0,4.42-1.77h4.8c-1.4,3.55-4.8,5.85-9.22,5.85-5.89,0-10-4.15-10-9.82S82,8.78,87.89,8.78Zm21.84,0c5.89,0,10,4.16,10,9.82v1.59H104.4a5.1,5.1,0,0,0,5.33,4.15,5.21,5.21,0,0,0,4.41-1.77h4.8c-1.4,3.55-4.8,5.85-9.21,5.85-5.9,0-10-4.15-10-9.82S103.83,8.78,109.73,8.78Zm-52.66.49V27.93H52.58V9.27ZM38.64,13a5.32,5.32,0,0,0-5.51,5.63,5.32,5.32,0,0,0,5.51,5.63,5.29,5.29,0,0,0,5.48-5.63A5.3,5.3,0,0,0,38.64,13ZM13.45,7.23a8,8,0,0,0-8.24,8.35A8,8,0,0,0,13.45,24c4.91,0,8.23-3.55,8.23-8.38A7.94,7.94,0,0,0,13.45,7.23Zm74.44,5.63a5.07,5.07,0,0,0-5.21,3.74H93.11A5.09,5.09,0,0,0,87.89,12.86Zm21.84,0a5.08,5.08,0,0,0-5.22,3.74h10.43A5.09,5.09,0,0,0,109.73,12.86ZM54.84.85a2.91,2.91,0,0,1,3,3,3,3,0,1,1-6,0A2.91,2.91,0,0,1,54.84.85Z" fill="#2c2a50" fill-rule="evenodd"/>
</svg>